<?xml version="1.0" standalone="no"?>
<!DOCTYPE svg PUBLIC "-//W3C//DTD SVG 20010904//EN"
 "http://www.w3.org/TR/2001/REC-SVG-20010904/DTD/svg10.dtd">
<svg version="1.0" xmlns="http://www.w3.org/2000/svg"
 width="381.000000pt" height="381.000000pt" viewBox="0 0 381.000000 381.000000"
 preserveAspectRatio="xMidYMid meet">
<metadata>
Created by potrace 1.14, written by Peter Selinger 2001-2017
</metadata>
<g transform="translate(0.000000,381.000000) scale(0.100000,-0.100000)"
fill="#000000" stroke="none">
<path d="M400 2972 c-22 -8 -7 -23 45 -47 84 -37 85 -39 85 -382 l0 -288 200
0 200 0 1 135 c0 74 1 205 1 290 0 194 6 212 82 245 103 46 79 50 -279 50
-178 0 -329 -1 -335 -3z"/>
<path d="M2016 2952 c-10 -36 -18 -402 -9 -402 16 0 36 29 106 150 36 63 82
132 103 152 58 60 93 66 392 67 144 1 262 -2 262 -6 0 -5 -81 -152 -179 -328
-99 -176 -177 -322 -175 -324 5 -6 385 -8 402 -3 6 2 12 8 12 13 0 5 11 26 23
47 13 20 43 73 67 117 24 44 94 171 157 283 62 111 114 212 116 225 l2 22
-637 2 c-597 2 -637 2 -642 -15z"/>
<path d="M109 2038 c0 -2 -2 -36 -3 -75 -1 -54 2 -73 11 -73 9 0 13 21 13 75
0 43 -4 75 -10 75 -5 0 -10 -1 -11 -2z"/>
<path d="M310 1965 c0 -43 4 -75 10 -75 6 0 10 13 10 28 0 41 43 42 67 2 9
-17 23 -30 31 -30 10 0 8 8 -7 28 -20 28 -20 29 0 45 43 37 11 77 -62 77 l-49
0 0 -75z m105 37 c8 -21 -19 -41 -53 -39 -21 2 -28 8 -30 29 -3 23 1 27 25 30
37 5 50 0 58 -20z"/>
<path d="M600 2037 c0 -21 61 -142 72 -142 13 0 72 134 63 143 -9 9 -21 -10
-40 -60 -10 -27 -21 -48 -25 -48 -4 0 -16 23 -27 52 -11 29 -25 54 -31 56 -7
2 -12 1 -12 -1z"/>
<path d="M910 1965 c0 -43 4 -75 10 -75 6 0 10 32 10 75 0 43 -4 75 -10 75 -6
0 -10 -32 -10 -75z"/>
<path d="M1119 2033 c-1 -11 -2 -94 0 -120 2 -46 20 -21 19 28 0 28 2 52 4 54
2 3 22 -20 44 -50 54 -75 64 -72 64 20 0 88 -18 102 -22 18 l-3 -58 -43 58
c-39 52 -60 69 -63 50z"/>
<path d="M1449 2021 c-29 -23 -31 -81 -4 -111 15 -16 29 -20 72 -18 l53 2 0
38 c0 37 -1 38 -35 38 -19 0 -35 -5 -35 -11 0 -6 6 -9 13 -6 8 3 20 1 27 -3
11 -7 11 -12 2 -23 -22 -27 -53 -27 -78 -2 -25 25 -25 56 1 85 16 17 60 17 71
-1 3 -5 13 -9 22 -9 14 1 13 4 -7 20 -29 25 -72 26 -102 1z"/>
<path d="M1940 2031 c0 -4 20 -8 45 -7 25 1 45 -1 45 -3 0 -2 -20 -28 -45 -57
-25 -28 -45 -57 -45 -63 0 -7 24 -11 61 -11 33 0 58 4 55 9 -3 5 -19 8 -36 7
-50 -4 -51 8 -5 64 25 30 45 58 45 62 0 5 -27 8 -60 8 -33 0 -60 -4 -60 -9z"/>
<path d="M2260 1993 c-11 -27 -24 -56 -30 -65 -5 -10 -10 -22 -10 -28 0 -17
18 -11 25 9 11 34 95 31 95 -4 0 -8 7 -15 15 -15 12 0 10 12 -11 58 -15 31
-28 65 -31 75 -9 31 -33 18 -53 -30z m52 -25 c7 -15 4 -18 -22 -18 l-31 0 17
33 c12 22 19 27 22 17 3 -8 9 -23 14 -32z"/>
<path d="M2537 2033 c-8 -18 -1 -137 9 -140 7 -2 10 16 9 52 -1 30 1 55 4 55
3 0 16 -12 28 -27 l23 -28 28 32 28 32 -1 -56 c0 -31 5 -58 10 -60 7 -2 11 25
11 72 1 85 -7 92 -48 43 l-28 -33 -26 33 c-25 32 -39 39 -47 25z"/>
<path d="M2885 2015 c-14 -13 -25 -36 -25 -50 0 -36 42 -75 80 -75 46 0 84 42
76 83 -13 65 -85 89 -131 42z m105 -26 c25 -45 -26 -99 -73 -78 -31 14 -45 62
-26 86 31 37 77 33 99 -8z"/>
<path d="M3190 1965 c0 -72 15 -105 22 -47 5 40 41 42 64 3 10 -17 24 -31 32
-31 10 0 8 8 -7 28 -20 29 -20 29 0 46 14 12 18 23 13 39 -9 31 -22 37 -76 37
l-48 0 0 -75z m103 41 c9 -22 -10 -39 -47 -41 -33 -3 -36 -1 -36 25 0 19 6 30
18 32 27 6 60 -3 65 -16z"/>
<path d="M3511 1968 c-33 -74 -33 -102 0 -57 23 32 65 31 90 -3 10 -12 20 -21
22 -18 9 9 -55 150 -68 150 -7 0 -26 -32 -44 -72z m69 -10 c0 -5 -11 -8 -25
-8 -29 0 -29 0 -13 35 l12 26 13 -23 c7 -13 12 -26 13 -30z"/>
<path d="M535 1732 c-3 -3 -5 -79 -5 -169 0 -205 -6 -223 -85 -259 -31 -14
-54 -31 -52 -37 5 -16 669 -17 674 -1 2 6 -20 21 -48 34 -80 38 -83 46 -89
255 l-5 180 -192 1 c-106 0 -195 -2 -198 -4z"/>
<path d="M2221 1730 c-14 -9 -251 -438 -251 -455 0 -8 3 -16 8 -16 31 -6 1325
-3 1328 3 6 10 14 117 19 270 6 182 -3 182 -98 4 -79 -148 -123 -198 -192
-218 -43 -12 -618 -18 -630 -6 -4 3 18 51 48 105 52 93 65 117 143 259 l34 60
-201 0 c-110 0 -204 -3 -208 -6z"/>
<path d="M1038 902 c-26 -3 -28 -7 -28 -48 l0 -44 43 2 c36 1 38 2 10 5 -40 5
-44 30 -5 36 l27 4 -27 2 c-17 0 -28 7 -28 15 0 9 12 16 28 18 15 2 23 5 17 8
-5 3 -22 4 -37 2z"/>
<path d="M1668 902 c-14 -3 -18 -14 -18 -48 l0 -44 43 2 c36 1 38 2 10 5 -40
5 -44 30 -5 36 l27 4 -27 2 c-17 0 -28 7 -28 15 0 9 12 16 28 18 22 3 24 4 7
9 -11 3 -28 3 -37 1z"/>
<path d="M2692 901 c-9 -5 -16 -47 -13 -78 1 -8 15 -12 39 -11 36 1 36 1 5 5
-41 5 -45 33 -5 33 20 0 23 3 13 9 -8 5 -20 7 -28 4 -7 -3 -13 1 -13 10 0 10
11 17 33 19 31 3 31 3 5 9 -15 3 -31 3 -36 0z"/>
<path d="M2853 896 c-10 -15 -11 -64 -1 -78 5 -9 8 -6 8 9 0 17 4 21 18 16 9
-4 23 -14 30 -22 12 -14 13 -14 8 2 -3 10 -2 26 3 36 5 9 7 22 3 28 -10 15
-61 22 -69 9z m57 -20 c0 -14 -34 -28 -44 -18 -15 14 -4 32 19 32 15 0 25 -6
25 -14z"/>
<path d="M790 895 c0 -24 25 -85 33 -82 6 2 16 19 23 38 9 24 13 28 13 13 1
-11 7 -29 15 -40 14 -18 15 -18 24 6 20 52 23 70 14 70 -5 0 -13 -17 -17 -37
l-8 -38 -11 34 c-17 48 -33 50 -42 4 l-7 -38 -11 32 c-11 31 -26 54 -26 38z"/>
<path d="M1180 854 l0 -45 38 3 c35 3 37 4 35 38 0 19 -1 38 -2 43 -1 4 -17 7
-36 7 -35 0 -35 0 -35 -46z m58 24 c-7 -19 -38 -22 -38 -4 0 10 9 16 21 16 12
0 19 -5 17 -12z m2 -43 c0 -8 -9 -15 -20 -15 -11 0 -20 7 -20 15 0 8 9 15 20
15 11 0 20 -7 20 -15z"/>
<path d="M1470 855 c0 -43 1 -45 29 -45 29 0 61 22 61 41 0 29 -22 49 -55 49
-35 0 -35 0 -35 -45z m65 0 c0 -23 -5 -31 -22 -33 -20 -3 -23 1 -23 33 0 32 3
36 23 33 17 -2 22 -10 22 -33z"/>
<path d="M1829 858 c9 -23 22 -43 27 -45 5 -2 17 17 26 42 10 25 13 45 8 45
-5 0 -14 -17 -21 -37 l-12 -37 -14 37 c-9 20 -19 37 -24 37 -4 0 0 -19 10 -42z"/>
<path d="M1990 855 l0 -45 43 2 c36 1 38 2 10 5 -40 5 -44 30 -5 36 l27 4 -27
2 c-40 2 -36 29 5 34 28 3 26 4 -10 5 l-43 2 0 -45z"/>
<path d="M2160 855 l0 -45 38 1 c27 1 31 3 12 6 -31 6 -39 18 -35 55 2 15 0
28 -5 28 -6 0 -10 -20 -10 -45z"/>
<path d="M2320 880 c-6 -12 -8 -30 -5 -40 7 -24 52 -37 74 -23 20 13 26 50 11
69 -19 21 -67 18 -80 -6z m69 -9 c15 -27 -9 -56 -37 -47 -21 7 -31 44 -15 59
13 13 42 7 52 -12z"/>
<path d="M2509 898 c-6 -21 -4 -80 2 -84 5 -3 9 2 9 10 0 9 11 16 28 18 21 2
27 8 27 28 0 21 -5 26 -32 28 -18 2 -33 2 -34 0z m56 -19 c9 -13 3 -19 -24
-24 -16 -3 -21 1 -21 16 0 21 34 27 45 8z"/>
</g>
</svg>
